<svg width="18" height="22" viewBox="0 0 18 22" fill="none" xmlns="http://www.w3.org/2000/svg">
<path d="M14.625 7.7H5.625V5.5C5.625 4.62 5.9625 3.85 6.6375 3.19C7.9875 1.87 10.125 1.87 11.3625 3.19C11.8125 3.63 12.0375 4.18 12.2625 4.73C12.375 5.28 13.05 5.61 13.6125 5.5C14.175 5.39 14.625 4.73 14.4 4.18C14.175 3.19 13.6125 2.31 12.9375 1.65C11.925 0.55 10.4625 0 9 0C5.85 0 3.375 2.42 3.375 5.5V7.7C1.4625 7.7 0 9.13 0 11V18.7C0 20.57 1.4625 22 3.375 22H14.625C16.5375 22 18 20.57 18 18.7V11C18 9.13 16.5375 7.7 14.625 7.7Z" fill="#8B00FF"/>
</svg>
